# xmcd
#
# Track frame offsets:
#	150
#	19307
#	39599
#	53379
#	66779
#	83836
#	107435
#	131062
#	144485
#	163642
#	183934
#	197714
#	211114
#	228171
#	251770
#	275397
#
# Disc length: 3848 seconds
#
# Revision: 1
# Processed by: cddbd v1.5.2PL0 Copyright (c) Steve Scherf et al.
# Submitted via: audiograbber 1.83.01
#
DISCID=d50f0610
DTITLE=Various Artist - PSCDG-1577
DYEAR=2002
DGENRE=Karaoke
TTITLE0=Stevie Ray Vaughan - Crossfire w/ vocals
TTITLE1=Stevie Ray Vaughan - Sky is Crying w/ vocals
TTITLE2=Albert King - Born Under a Bad Sign w/ vocals
TTITLE3=Blues Brothers - Hey, Bartender w/ vocals
TTITLE4=Howlin' Wolf - Killing Floor w/ vocals
TTITLE5=Blues Brothers - Sweet Home, Chicago w/ vocals
TTITLE6=George Thorogood - Bad to the Bone w/ vocals
TTITLE7=Eric Clapton - Crossroads w/ vocals
TTITLE8=Stevie Ray Vaughan - Crossfire
TTITLE9=Stevie Ray Vaughan - Sky is Crying
TTITLE10=Albert King - Born Under a Bad SIgn
TTITLE11=Blues Brothers - Hey, Bartender
TTITLE12=Howlin' Wolf - Killing Floor
TTITLE13=Blues Brothers - Sweet Home, Chicago
TTITLE14=George Thorogood - Bad to the Bone
TTITLE15=Eric Clapton - Crossroads
EXTD=Blues Kings Vol. 1
EXTT0=
EXTT1=
EXTT2=
EXTT3=
EXTT4=
EXTT5=
EXTT6=
EXTT7=
EXTT8=
EXTT9=
EXTT10=
EXTT11=
EXTT12=
EXTT13=
EXTT14=
EXTT15=
PLAYORDER=
